<mxfile host="app.diagrams.net" agent="Mozilla/5.0 (Windows NT 10.0; Win64; x64) AppleWebKit/537.36 (KHTML, like Gecko) Chrome/141.0.0.0 Safari/537.36" version="28.2.7">
  <diagram name="Page-1" id="2YBvvXClWsGukQMizWep">
    <mxGraphModel grid="1" page="1" gridSize="10" guides="1" tooltips="1" connect="1" arrows="1" fold="1" pageScale="1" pageWidth="850" pageHeight="1100" math="0" shadow="0">
      <root>
        <mxCell id="0" />
        <mxCell id="1" parent="0" />
        <mxCell id="7bdcT98ebVTNIFPLetDT-1" value="GetETicket()" style="html=1;verticalAlign=bottom;endArrow=block;edgeStyle=elbowEdgeStyle;elbow=vertical;curved=0;rounded=0;" edge="1" parent="1" target="7bdcT98ebVTNIFPLetDT-4">
          <mxGeometry x="-0.0414" relative="1" as="geometry">
            <mxPoint x="880" y="700" as="sourcePoint" />
            <Array as="points">
              <mxPoint x="1020" y="700" />
              <mxPoint x="975" y="690" />
            </Array>
            <mxPoint x="1089.5" y="700" as="targetPoint" />
            <mxPoint as="offset" />
          </mxGeometry>
        </mxCell>
        <mxCell id="7bdcT98ebVTNIFPLetDT-2" value="Customer" style="shape=umlActor;verticalLabelPosition=bottom;verticalAlign=top;html=1;outlineConnect=0;fillColor=#FF6666;" vertex="1" parent="1">
          <mxGeometry x="650" y="660" width="30" height="60" as="geometry" />
        </mxCell>
        <mxCell id="7bdcT98ebVTNIFPLetDT-3" value="Navigate to E-ticket Section" style="html=1;verticalAlign=bottom;startArrow=oval;endArrow=block;startSize=8;edgeStyle=elbowEdgeStyle;elbow=horizontal;curved=0;rounded=0;" edge="1" parent="1">
          <mxGeometry x="0.0023" relative="1" as="geometry">
            <mxPoint x="680" y="680" as="sourcePoint" />
            <mxPoint x="860" y="680" as="targetPoint" />
            <Array as="points">
              <mxPoint x="840" y="680" />
            </Array>
            <mxPoint as="offset" />
          </mxGeometry>
        </mxCell>
        <mxCell id="7bdcT98ebVTNIFPLetDT-4" value=":ControllerClass" style="shape=umlLifeline;perimeter=lifelinePerimeter;whiteSpace=wrap;html=1;container=0;dropTarget=0;collapsible=0;recursiveResize=0;outlineConnect=0;portConstraint=eastwest;newEdgeStyle={&quot;edgeStyle&quot;:&quot;elbowEdgeStyle&quot;,&quot;elbow&quot;:&quot;vertical&quot;,&quot;curved&quot;:0,&quot;rounded&quot;:0};fillColor=#FF6666;" vertex="1" parent="1">
          <mxGeometry x="1060" y="580" width="100" height="540" as="geometry" />
        </mxCell>
        <mxCell id="7bdcT98ebVTNIFPLetDT-5" value="" style="html=1;points=[];perimeter=orthogonalPerimeter;outlineConnect=0;targetShapes=umlLifeline;portConstraint=eastwest;newEdgeStyle={&quot;edgeStyle&quot;:&quot;elbowEdgeStyle&quot;,&quot;elbow&quot;:&quot;vertical&quot;,&quot;curved&quot;:0,&quot;rounded&quot;:0};" vertex="1" parent="7bdcT98ebVTNIFPLetDT-4">
          <mxGeometry x="45" y="110" width="10" height="400" as="geometry" />
        </mxCell>
        <mxCell id="7bdcT98ebVTNIFPLetDT-6" value=":BookCatalogue" style="shape=umlLifeline;perimeter=lifelinePerimeter;whiteSpace=wrap;html=1;container=0;dropTarget=0;collapsible=0;recursiveResize=0;outlineConnect=0;portConstraint=eastwest;newEdgeStyle={&quot;edgeStyle&quot;:&quot;elbowEdgeStyle&quot;,&quot;elbow&quot;:&quot;vertical&quot;,&quot;curved&quot;:0,&quot;rounded&quot;:0};fillColor=#FF6666;" vertex="1" parent="1">
          <mxGeometry x="1225" y="580" width="100" height="540" as="geometry" />
        </mxCell>
        <mxCell id="7bdcT98ebVTNIFPLetDT-7" value="" style="html=1;points=[];perimeter=orthogonalPerimeter;outlineConnect=0;targetShapes=umlLifeline;portConstraint=eastwest;newEdgeStyle={&quot;edgeStyle&quot;:&quot;elbowEdgeStyle&quot;,&quot;elbow&quot;:&quot;vertical&quot;,&quot;curved&quot;:0,&quot;rounded&quot;:0};" vertex="1" parent="7bdcT98ebVTNIFPLetDT-6">
          <mxGeometry x="45" y="150" width="10" height="50" as="geometry" />
        </mxCell>
        <mxCell id="7bdcT98ebVTNIFPLetDT-8" value="GetBookingsWithETickets(uid)" style="html=1;verticalAlign=bottom;endArrow=block;edgeStyle=elbowEdgeStyle;elbow=vertical;curved=0;rounded=0;" edge="1" parent="1" target="7bdcT98ebVTNIFPLetDT-7">
          <mxGeometry x="-0.0059" relative="1" as="geometry">
            <mxPoint x="1120" y="740" as="sourcePoint" />
            <Array as="points">
              <mxPoint x="1250" y="740" />
              <mxPoint x="1205" y="730" />
            </Array>
            <mxPoint x="1260" y="740" as="targetPoint" />
            <mxPoint as="offset" />
          </mxGeometry>
        </mxCell>
        <mxCell id="7bdcT98ebVTNIFPLetDT-9" value="Return List Of Bookings" style="html=1;verticalAlign=bottom;endArrow=open;dashed=1;endSize=8;edgeStyle=elbowEdgeStyle;elbow=vertical;curved=0;rounded=0;" edge="1" parent="1">
          <mxGeometry x="-0.0526" relative="1" as="geometry">
            <mxPoint x="1120" y="770" as="targetPoint" />
            <Array as="points">
              <mxPoint x="1370" y="770" />
            </Array>
            <mxPoint x="1270" y="771" as="sourcePoint" />
            <mxPoint as="offset" />
          </mxGeometry>
        </mxCell>
        <mxCell id="7bdcT98ebVTNIFPLetDT-10" value=":Booking" style="shape=umlLifeline;perimeter=lifelinePerimeter;whiteSpace=wrap;html=1;container=0;dropTarget=0;collapsible=0;recursiveResize=0;outlineConnect=0;portConstraint=eastwest;newEdgeStyle={&quot;edgeStyle&quot;:&quot;elbowEdgeStyle&quot;,&quot;elbow&quot;:&quot;vertical&quot;,&quot;curved&quot;:0,&quot;rounded&quot;:0};fillColor=#FF6666;" vertex="1" parent="1">
          <mxGeometry x="1390" y="580" width="100" height="530" as="geometry" />
        </mxCell>
        <mxCell id="7bdcT98ebVTNIFPLetDT-11" value="" style="html=1;points=[];perimeter=orthogonalPerimeter;outlineConnect=0;targetShapes=umlLifeline;portConstraint=eastwest;newEdgeStyle={&quot;edgeStyle&quot;:&quot;elbowEdgeStyle&quot;,&quot;elbow&quot;:&quot;vertical&quot;,&quot;curved&quot;:0,&quot;rounded&quot;:0};" vertex="1" parent="7bdcT98ebVTNIFPLetDT-10">
          <mxGeometry x="45" y="210" width="10" height="240" as="geometry" />
        </mxCell>
        <mxCell id="7bdcT98ebVTNIFPLetDT-12" value=":E-ticket" style="shape=umlLifeline;perimeter=lifelinePerimeter;whiteSpace=wrap;html=1;container=0;dropTarget=0;collapsible=0;recursiveResize=0;outlineConnect=0;portConstraint=eastwest;newEdgeStyle={&quot;edgeStyle&quot;:&quot;elbowEdgeStyle&quot;,&quot;elbow&quot;:&quot;vertical&quot;,&quot;curved&quot;:0,&quot;rounded&quot;:0};fillColor=#FF6666;" vertex="1" parent="1">
          <mxGeometry x="1550" y="580" width="100" height="530" as="geometry" />
        </mxCell>
        <mxCell id="7bdcT98ebVTNIFPLetDT-13" value="" style="html=1;points=[];perimeter=orthogonalPerimeter;outlineConnect=0;targetShapes=umlLifeline;portConstraint=eastwest;newEdgeStyle={&quot;edgeStyle&quot;:&quot;elbowEdgeStyle&quot;,&quot;elbow&quot;:&quot;vertical&quot;,&quot;curved&quot;:0,&quot;rounded&quot;:0};" vertex="1" parent="7bdcT98ebVTNIFPLetDT-12">
          <mxGeometry x="45" y="350" width="10" height="70" as="geometry" />
        </mxCell>
        <mxCell id="7bdcT98ebVTNIFPLetDT-14" value="HasETicket()" style="html=1;verticalAlign=bottom;endArrow=block;edgeStyle=elbowEdgeStyle;elbow=vertical;curved=0;rounded=0;" edge="1" parent="1">
          <mxGeometry relative="1" as="geometry">
            <mxPoint x="1120" y="820" as="sourcePoint" />
            <Array as="points">
              <mxPoint x="1250" y="820" />
              <mxPoint x="1205" y="810" />
            </Array>
            <mxPoint x="1430" y="820" as="targetPoint" />
            <mxPoint as="offset" />
          </mxGeometry>
        </mxCell>
        <mxCell id="7bdcT98ebVTNIFPLetDT-15" value=":GUI" style="shape=umlLifeline;perimeter=lifelinePerimeter;whiteSpace=wrap;html=1;container=0;dropTarget=0;collapsible=0;recursiveResize=0;outlineConnect=0;portConstraint=eastwest;newEdgeStyle={&quot;edgeStyle&quot;:&quot;elbowEdgeStyle&quot;,&quot;elbow&quot;:&quot;vertical&quot;,&quot;curved&quot;:0,&quot;rounded&quot;:0};fillColor=#FF6666;" vertex="1" parent="1">
          <mxGeometry x="820" y="580" width="100" height="540" as="geometry" />
        </mxCell>
        <mxCell id="7bdcT98ebVTNIFPLetDT-16" value="" style="html=1;points=[];perimeter=orthogonalPerimeter;outlineConnect=0;targetShapes=umlLifeline;portConstraint=eastwest;newEdgeStyle={&quot;edgeStyle&quot;:&quot;elbowEdgeStyle&quot;,&quot;elbow&quot;:&quot;vertical&quot;,&quot;curved&quot;:0,&quot;rounded&quot;:0};" vertex="1" parent="7bdcT98ebVTNIFPLetDT-15">
          <mxGeometry x="45" y="70" width="10" height="440" as="geometry" />
        </mxCell>
        <mxCell id="7bdcT98ebVTNIFPLetDT-17" value="for each booking" style="shape=umlFrame;whiteSpace=wrap;html=1;pointerEvents=0;width=60;height=30;fillColor=#FFE599;" vertex="1" parent="1">
          <mxGeometry x="1030" y="790" width="600" height="280" as="geometry" />
        </mxCell>
        <mxCell id="7bdcT98ebVTNIFPLetDT-18" value="if ticket does not exist" style="shape=umlFrame;whiteSpace=wrap;html=1;pointerEvents=0;width=80;height=40;fillColor=#FFB570;" vertex="1" parent="1">
          <mxGeometry x="1070" y="850" width="550" height="190" as="geometry" />
        </mxCell>
        <mxCell id="7bdcT98ebVTNIFPLetDT-19" value="Display Error &quot;No E-ticket&amp;nbsp;&lt;div&gt;generated&quot;&lt;/div&gt;" style="html=1;verticalAlign=bottom;endArrow=open;dashed=1;endSize=8;edgeStyle=elbowEdgeStyle;elbow=vertical;curved=0;rounded=0;" edge="1" parent="1">
          <mxGeometry x="-0.1511" relative="1" as="geometry">
            <mxPoint x="880" y="920" as="targetPoint" />
            <Array as="points">
              <mxPoint x="1535" y="920" />
            </Array>
            <mxPoint x="1435" y="921" as="sourcePoint" />
            <mxPoint as="offset" />
          </mxGeometry>
        </mxCell>
        <mxCell id="7bdcT98ebVTNIFPLetDT-20" value="else" style="shape=umlFrame;whiteSpace=wrap;html=1;pointerEvents=0;fillColor=#FFB570;" vertex="1" parent="1">
          <mxGeometry x="1070" y="940" width="550" height="100" as="geometry" />
        </mxCell>
        <mxCell id="7bdcT98ebVTNIFPLetDT-21" value="GetTicketDetails()" style="html=1;verticalAlign=bottom;endArrow=block;edgeStyle=elbowEdgeStyle;elbow=vertical;curved=0;rounded=0;" edge="1" parent="1">
          <mxGeometry x="0.0667" relative="1" as="geometry">
            <mxPoint x="1450" y="960" as="sourcePoint" />
            <Array as="points">
              <mxPoint x="1580" y="960" />
              <mxPoint x="1535" y="950" />
            </Array>
            <mxPoint x="1600" y="960" as="targetPoint" />
            <mxPoint as="offset" />
          </mxGeometry>
        </mxCell>
        <mxCell id="7bdcT98ebVTNIFPLetDT-22" value="Return Ticket Details" style="html=1;verticalAlign=bottom;endArrow=open;dashed=1;endSize=8;edgeStyle=elbowEdgeStyle;elbow=vertical;curved=0;rounded=0;" edge="1" parent="1">
          <mxGeometry x="-0.1511" relative="1" as="geometry">
            <mxPoint x="1450" y="980" as="targetPoint" />
            <Array as="points">
              <mxPoint x="1685" y="980" />
            </Array>
            <mxPoint x="1585" y="981" as="sourcePoint" />
            <mxPoint as="offset" />
          </mxGeometry>
        </mxCell>
        <mxCell id="7bdcT98ebVTNIFPLetDT-23" value="Return Ticket Details" style="html=1;verticalAlign=bottom;endArrow=open;dashed=1;endSize=8;edgeStyle=elbowEdgeStyle;elbow=vertical;curved=0;rounded=0;" edge="1" parent="1">
          <mxGeometry x="-0.1765" relative="1" as="geometry">
            <mxPoint x="1118" y="1010" as="targetPoint" />
            <Array as="points">
              <mxPoint x="1533" y="1010" />
            </Array>
            <mxPoint x="1433" y="1011" as="sourcePoint" />
            <mxPoint as="offset" />
          </mxGeometry>
        </mxCell>
        <mxCell id="7bdcT98ebVTNIFPLetDT-24" value="Display Ticket Details" style="html=1;verticalAlign=bottom;endArrow=open;dashed=1;endSize=8;edgeStyle=elbowEdgeStyle;elbow=vertical;curved=0;rounded=0;" edge="1" parent="1" target="7bdcT98ebVTNIFPLetDT-15">
          <mxGeometry x="-0.0526" relative="1" as="geometry">
            <mxPoint x="950" y="1020" as="targetPoint" />
            <Array as="points">
              <mxPoint x="1200" y="1020" />
            </Array>
            <mxPoint x="1100" y="1021" as="sourcePoint" />
            <mxPoint as="offset" />
          </mxGeometry>
        </mxCell>
      </root>
    </mxGraphModel>
  </diagram>
</mxfile>
